<?xml version="1.0" encoding="UTF-8" standalone="no"?>
<svg xmlns="http://www.w3.org/2000/svg"
     height="100%" width="100%" viewBox="-50 -50 300 300" version="1.1">
  <defs>
     <clipPath id="insideCircleA">
        <circle cx="100" cy="100" r="61.500"/>
     </clipPath>
  </defs>
  <path fill-rule="evenodd"
     d="M  91.780, 30.539
        L  93.413, 16.324
        Q 100.000, 16.000 106.586, 16.324
        L 108.220, 30.539
        Q 113.656, 31.345 118.987, 32.680
        L 125.936, 20.172
        Q 132.145, 22.394 138.107, 25.214
        L 134.176, 38.972
        Q 138.890, 41.797 143.304, 45.071
        L 154.510, 36.174
        Q 159.397, 40.603 163.826, 45.489
        L 154.929, 56.696
        Q 158.203, 61.110 161.028, 65.824
        L 174.786, 61.893 
        Q 177.606, 67.855 179.828, 74.064
        L 167.320, 81.013
        Q 168.655, 86.344 169.461, 91.780
        L 183.676, 93.413
        Q 184.000,100.000 183.676,106.586
        L 169.461,108.220 
        Q 168.655,113.656 167.320,118.987
        L 179.828,125.936
        Q 177.606,132.145 174.786,138.107
        L 161.028,134.176 
        Q 158.203,138.890 154.929,143.304
        L 163.826,154.510
        Q 159.387,159.387 154.511,163.826
        L 143.304,154.929 
        Q 138.890,158.203 134.176,161.028
        L 138.107,174.786 
        Q 132.145,177.606 125.936,179.828
        L 118.987,167.320 
        Q 113.656,168.655 108.220,169.461
        L 106.587,183.676 
        Q 100.000,184.000  93.414,183.676
        L  91.780,169.461 
        Q  86.344,168.655  81.013,167.320
        L  74.064,179.828 
        Q  67.855,177.606  61.893,174.786
        L  65.824,161.028
        Q  61.110,158.203  56.696,154.929
        L  45.490,163.828 
        Q  40.603,159.397  36.174,154.511
        L  45.071,143.304 
        Q  41.797,138.890  38.972,134.176
        L  25.214,138.107
        Q  22.394,132.145  20.172,125.936
        L  32.680,118.987 
        Q  31.345,113.656  30.539,108.220
        L  16.324,106.587 
        Q  16.000,100.000  16.324, 93.414
        L  30.539, 91.780 
        Q  31.345, 86.344  32.680, 81.013
        L  20.172, 74.064 
        Q  22.394, 67.855  25.214, 61.893
        L  38.972, 65.824 
        Q  41.797, 61.110  45.071, 56.696
        L  36.174, 45.490 
        Q  40.603, 40.603  45.489, 36.174
        L  56.696, 45.071 
        Q  61.110, 41.797  65.824, 38.972
        L  61.893, 25.214 
        Q  67.855, 22.394  74.064, 20.172
        L  81.013, 32.680 
        Q  86.344, 31.345  91.780, 30.539
        
   		M 105.177, 50.682
   		A  50.000, 50.000 108.000 0 1 145.299,120.176
   		L 127.979,110.176
   		A  30.000, 30.000 100.000 0 0 105.177, 70.682
   		
   		M 140.123,129.142
   		A  50.000, 50.000 108.000 0 1  59.877,129.142
   		L  77.198,119.142
   		A  30.000, 30.000 100.000 0 0 122.802,119.142
   		
   		M  54.701,120.176
   		A  50.000, 50.000 108.000 0 1  94.823, 50.682
   		L  94.824, 70.682
   		A  30.000, 30.000 100.000 0 0  72.021,110.176
   		
   		M 100.000, 88.000 
   		A  12.000, 12.000 181.000 1 1  99.791,111.998
   		A  12.000, 12.000 181.000 0 1 100.000, 88.000
   		z"/>
</svg>