<?xml version="1.0" encoding="UTF-8" standalone="no"?>
<svg xmlns="http://www.w3.org/2000/svg"
     height="100%" width="100%" viewBox="0 0 30 30" version="1.1">
  <path 
     d="M 7,14
     	l 0,-1
     	q 0,-5 5,-5
     	l 6,0
     	q 5,0 5,5
     	l 1.5,0
		q -1,1.5 -3,3
     	q -2,-1.5 -3,-3
     	l 1.5,0
     	q 0,-2, -2,-2
     	l -6,0
     	q -2,0 -2,2
     	l 0,1
     	l -1.5,-1
   		z"/>
  <path 
     d="M 23,16
     	l 0,1
     	q 0,5 -5,5
     	l -6,0
     	q -5,0 -5,-5
     	l -1.5,0
     	q 1,-1.5 3,-3
     	q 2,1.5 3,3
     	l -1.5,0
     	q 0,2, 2,2
     	l 6,0
     	q 2,0 2,-2
     	l 0,-1
     	l 1.5,1
   		z"/>
  <path 
     d="M 14.25,12.5
     	l 2,0
     	l 0,5
     	l -2,0
     	l 0,-3
     	l -1,0
   		z"/>
</svg> 