<?xml version="1.0" encoding="UTF-8" standalone="no"?>
<svg xmlns="http://www.w3.org/2000/svg"
     height="100%" width="100%" viewBox="0 0 30 30" version="1.1">
  <path 
     d="M 8,10
     	l 2,0
     	q 2,0 4,2
     	l 3,3.5
     	q 1.5,1.5 3,1.5
     	l 0,-1.5
     	q 1.5,1 3,3
     	q -1.5,2 -3,3
     	l 0,-1.5
     	q -3,0 -5,-2
     	l -3,-3.5
     	q -1.5,-1.5 -3,-1.5
     	l -2,0
   		z"/>
  <path 
     d="M 8,20
     	l 2,0
     	q 2,0 4,-2
     	l -2,-2.5
     	q -1.5,1.5 -3,1.5
     	l -2,0
   		z"/>
  <path 
     d="M 17,14.5
     	q 1.5,-1.5 3,-1.5
     	l 0,1.5
     	q 1.5,-1 3,-3
     	q -1.5,-2 -3,-3
     	l 0,1.5
     	q -3,0 -5,2
   		z"/>
</svg> 