<?xml version="1.0" encoding="UTF-8" standalone="no"?>
<svg xmlns="http://www.w3.org/2000/svg"
     height="100%" width="100%" viewBox="-5 -5 30 30" version="1.1">
  <path style="opacity:0.5"
     d="M 3, 7
        l 3, 0
        L 8.13, 4.87
        q 0.5,-0.5 1,0
        A 10, 3 90 0 1 9.13, 15.13
        q -0.5,0.5 -1,0
        L 6,13
        l -3,0
        q -0.5,-3 0,-6
   		z"/>
  <path style="opacity:0.5"
     d="M 11.74,6.16
        A 8 8 97.5 0 1 11.74, 13.84
        q -0.82,0.19 -0.93,-0.62
        A 7 7 97.5 0 0 10.81,6.78
        q 0.11,-0.81 0.93,-0.62
   		z"/>
  <path style="opacity:0.5"
     d="M 13.61,3.91
        A 10 10 97.5 0 1 13.61, 16.09
        q -0.82,0.19 -0.93,-0.62
        A 9 9 97.5 0 0 12.67,4.53
        q 0.11,-0.81 0.93,-0.62
   		z"/>
  <path style="opacity:0.5"
     d="M 15.47,1.67
        A 12 12 97.5 0 1 15.47, 18.33
        q -0.82,0.19 -0.93,-0.62
        A 11 11 97.5 0 0 14.54,2.29
        q 0.11,-0.81 0.93,-0.62
   		z"/>
</svg>
